<?xml version="1.0" standalone="no"?><!DOCTYPE svg PUBLIC "-//W3C//DTD SVG 1.1//EN" "http://www.w3.org/Graphics/SVG/1.1/DTD/svg11.dtd"><svg t="1698347075520" class="icon" viewBox="0 0 1024 1024" version="1.1" xmlns="http://www.w3.org/2000/svg" p-id="23905" xmlns:xlink="http://www.w3.org/1999/xlink" width="128" height="128"><path d="M106 255.5a156 156 0 1 1 156 156 156 156 0 0 1-156-156z m657 156a156 156 0 1 0-156-156 156 156 0 0 0 156 156z m-0.5 43.5c-85.8 0-156 70.2-156 156v40.6l-93.79 58.68L417.5 651v-40c0-85.8-70.2-156-156-156s-156 70.2-156 156v249a64.19 64.19 0 0 0 64 64h184a64.19 64.19 0 0 0 64-64V726.41l78.34 48.76a32 32 0 0 0 33.88 0l76.78-48V860a64.19 64.19 0 0 0 64 64h184a64.19 64.19 0 0 0 64-64V611c0-85.8-70.2-156-156-156z" p-id="23906"></path></svg>