<?xml version="1.0" standalone="no"?><!DOCTYPE svg PUBLIC "-//W3C//DTD SVG 1.1//EN" "http://www.w3.org/Graphics/SVG/1.1/DTD/svg11.dtd"><svg t="1698346702140" class="icon" viewBox="0 0 1024 1024" version="1.1" xmlns="http://www.w3.org/2000/svg" p-id="21784" xmlns:xlink="http://www.w3.org/1999/xlink" width="128" height="128"><path d="M409.6 146.773333c0 6.826667 3.413333 13.653333 3.413333 20.48l10.24 20.48c17.066667 30.72 51.2 51.2 88.746667 51.2 47.786667 0 88.746667-34.133333 98.986667-78.506666 3.413333-10.24 3.413333-17.066667 3.413333-23.893334 0-58.026667-44.373333-102.4-102.4-102.4s-102.4 44.373333-102.4 102.4v10.24z" fill="" p-id="21785"></path><path d="M972.8 546.133333h-92.16l-238.933333-372.053333c-3.413333 13.653333-10.24 27.306667-17.066667 37.546667l215.04 334.506666H184.32l218.453333-327.68c-6.826667-10.24-13.653333-20.48-20.48-34.133333L143.36 546.133333H51.2c-10.24 0-17.066667 6.826667-17.066667 17.066667v409.6c0 10.24 6.826667 17.066667 17.066667 17.066667h921.6c10.24 0 17.066667-6.826667 17.066667-17.066667v-409.6c0-10.24-6.826667-17.066667-17.066667-17.066667zM218.453333 921.6c-44.373333 0-78.506667-37.546667-81.92-85.333333 0-6.826667 6.826667-17.066667 17.066667-17.066667 6.826667 0 17.066667 6.826667 17.066667 17.066667 0 23.893333 17.066667 51.2 47.786666 51.2 27.306667 0 54.613333-23.893333 54.613334-51.2 0-34.133333-30.72-44.373333-54.613334-51.2h-3.413333C160.426667 771.413333 136.533333 744.106667 136.533333 699.733333 136.533333 651.946667 170.666667 614.4 218.453333 614.4c44.373333 0 85.333333 40.96 88.746667 85.333333 0 6.826667-6.826667 17.066667-17.066667 17.066667-6.826667 0-17.066667-6.826667-17.066666-17.066667 0-27.306667-27.306667-51.2-54.613334-51.2S170.666667 669.013333 170.666667 699.733333c0 34.133333 23.893333 44.373333 47.786666 51.2h6.826667c54.613333 13.653333 81.92 40.96 81.92 85.333334C307.2 884.053333 266.24 921.6 218.453333 921.6z m279.893334 0c-10.24 3.413333-17.066667-3.413333-20.48-13.653333l-20.48-88.746667h-71.68l-27.306667 92.16c-3.413333 6.826667-10.24 10.24-17.066667 10.24h-3.413333c-10.24-3.413333-13.653333-13.653333-10.24-20.48l85.333333-273.066667c3.413333-6.826667 10.24-13.653333 17.066667-13.653333s13.653333 6.826667 17.066667 13.653333l68.266666 273.066667c0 6.826667-6.826667 17.066667-17.066666 20.48z m167.253333 0h-102.4c-10.24 0-17.066667-6.826667-17.066667-17.066667v-273.066666c0-10.24 6.826667-17.066667 17.066667-17.066667s17.066667 6.826667 17.066667 17.066667V887.466667h85.333333c10.24 0 17.066667 6.826667 17.066667 17.066666s-6.826667 17.066667-17.066667 17.066667z m170.666667-170.666667c10.24 0 17.066667 6.826667 17.066666 17.066667s-6.826667 17.066667-17.066666 17.066667H750.933333v102.4h119.466667c10.24 0 17.066667 6.826667 17.066667 17.066666s-6.826667 17.066667-17.066667 17.066667h-136.533333c-10.24 0-17.066667-6.826667-17.066667-17.066667v-273.066666c0-10.24 6.826667-17.066667 17.066667-17.066667h136.533333c10.24 0 17.066667 6.826667 17.066667 17.066667s-6.826667 17.066667-17.066667 17.066666H750.933333v102.4h85.333334z" fill="" p-id="21786"></path><path d="M395.946667 785.066667h51.2l-23.893334-92.16z" fill="" p-id="21787"></path></svg>