<?xml version="1.0" standalone="no"?><!DOCTYPE svg PUBLIC "-//W3C//DTD SVG 1.1//EN" "http://www.w3.org/Graphics/SVG/1.1/DTD/svg11.dtd"><svg t="1698344279778" class="icon" viewBox="0 0 1024 1024" version="1.1" xmlns="http://www.w3.org/2000/svg" p-id="10154" xmlns:xlink="http://www.w3.org/1999/xlink" width="128" height="128"><path d="M908.8 537.6c-6.4-57.6-38.4-121.6-96-160C780.8 352 742.4 332.8 704 320c-6.4 6.4-12.8 12.8-19.2 19.2-6.4 6.4-19.2 12.8-32 19.2 12.8 0 25.6 6.4 32 12.8C697.6 371.2 704 384 697.6 390.4c-6.4 6.4-19.2 12.8-25.6 6.4-70.4-25.6-153.6-25.6-192-19.2C467.2 384 460.8 377.6 454.4 364.8l0 0c0-12.8 6.4-19.2 19.2-19.2 6.4 0 12.8 0 25.6 0 0 0-6.4-6.4-6.4-6.4C480 326.4 467.2 313.6 460.8 300.8c0 0 0 0 0-6.4C448 300.8 435.2 300.8 428.8 300.8c-64-32-134.4-32-179.2-25.6-19.2 0-32 19.2-19.2 32l38.4 64C224 403.2 192 441.6 172.8 480L128 480c-12.8 0-25.6 12.8-25.6 25.6l0 83.2c0 6.4 6.4 19.2 12.8 19.2l57.6 25.6c25.6 57.6 76.8 102.4 140.8 140.8l0 76.8c0 12.8 12.8 25.6 32 25.6l83.2 0c12.8 0 25.6-6.4 32-12.8l19.2-38.4c19.2 0 38.4 0 51.2 0 32 0 57.6 0 83.2-6.4l0 32c0 12.8 12.8 25.6 32 25.6l83.2 0c12.8 0 25.6-6.4 25.6-12.8 44.8-70.4 89.6-134.4 128-204.8C902.4 614.4 908.8 576 908.8 537.6L908.8 537.6 908.8 537.6zM320 518.4c-25.6 0-38.4-12.8-38.4-32C281.6 467.2 300.8 448 320 448c25.6 0 38.4 12.8 38.4 32C364.8 505.6 345.6 518.4 320 518.4L320 518.4 320 518.4z" p-id="10155" fill="#2c2c2c"></path><path d="M544 339.2c12.8 6.4 25.6 6.4 38.4 6.4 6.4 0 12.8 0 19.2 0 25.6-6.4 51.2-19.2 70.4-38.4 12.8-12.8 19.2-32 19.2-57.6 0-51.2-51.2-96-108.8-96-64 0-108.8 44.8-108.8 96 0 12.8 6.4 25.6 6.4 38.4C499.2 313.6 518.4 332.8 544 339.2L544 339.2 544 339.2z" p-id="10156" fill="#2c2c2c"></path></svg>